# xmcd CD database file
#
# Track frame offsets:
#	150
#	5322
#	11739
#	23101
#	31499
#	44295
#	49909
#	60975
#	70858
#
# Disc length: 1026 seconds
#
# Revision: 0
# Processed by: cddbd v1.5.2PL0 Copyright (c) Steve Scherf et al.
# Submitted via: CDex 1.51
#
DISCID=6a040009
DTITLE=Dannazione HC - Sopravvivo
DYEAR=2007
DGENRE=Oi!-Core
TTITLE0=Giustizia del Sabato Sera
TTITLE1=Mai Uguale a Voi
TTITLE2=Odio
TTITLE3=Cavie
TTITLE4=Mercenari
TTITLE5=Bonehead
TTITLE6=C.P.T.
TTITLE7=Buio
TTITLE8=Rocco Campana Cover
EXTD=YEAR: 2007
EXTT0=
EXTT1=
EXTT2=
EXTT3=
EXTT4=
EXTT5=
EXTT6=
EXTT7=
EXTT8=
PLAYORDER=
